<?xml version="1.0" standalone="no"?>
<!DOCTYPE svg PUBLIC "-//W3C//DTD SVG 20010904//EN"
 "http://www.w3.org/TR/2001/REC-SVG-20010904/DTD/svg10.dtd">
<svg version="1.0" xmlns="http://www.w3.org/2000/svg"
 width="832.000000pt" height="832.000000pt" viewBox="0 0 832.000000 832.000000"
 preserveAspectRatio="xMidYMid meet">
<metadata>
Created by potrace 1.11, written by Peter Selinger 2001-2013
</metadata>
<g transform="translate(0.000000,832.000000) scale(0.100000,-0.100000)"
fill="#000000" stroke="none">
<path d="M2450 7669 c-83 -11 -159 -43 -249 -105 -44 -29 -82 -54 -85 -54 -10
0 -50 -34 -108 -94 -37 -37 -71 -86 -94 -132 -38 -77 -65 -200 -57 -256 3 -18
5 -40 5 -48 0 -32 31 -126 59 -179 33 -62 283 -490 296 -506 4 -5 15 -23 23
-40 8 -16 17 -32 20 -35 5 -5 14 -20 58 -99 14 -25 40 -70 59 -99 18 -29 33
-54 33 -56 0 -2 28 -51 61 -108 34 -56 70 -116 79 -133 20 -35 113 -195 143
-245 11 -19 33 -57 49 -85 16 -27 33 -57 38 -65 22 -34 87 -146 94 -160 4 -8
17 -32 29 -52 12 -20 55 -94 96 -165 41 -70 81 -138 88 -149 l14 -21 -678 4
c-1614 10 -1760 9 -1797 -15 -6 -4 -13 -7 -16 -8 -91 -18 -250 -157 -307 -269
-57 -114 -69 -170 -67 -315 2 -151 7 -193 34 -265 23 -64 61 -135 72 -135 4 0
8 -5 8 -11 0 -16 110 -119 127 -119 7 0 13 -4 13 -9 0 -5 24 -19 52 -31 29
-13 53 -21 53 -20 0 2 9 -2 20 -8 12 -5 41 -14 65 -18 59 -11 990 -12 1013 -1
9 4 17 4 17 0 0 -8 111 -8 133 0 7 2 21 1 32 -3 11 -4 34 -4 52 1 20 4 33 3
33 -3 0 -5 5 -6 11 -2 6 3 262 8 570 9 l559 3 -19 -32 c-29 -49 -122 -208
-144 -246 -11 -19 -57 -99 -103 -178 -46 -79 -84 -147 -84 -152 0 -6 -4 -10
-8 -10 -4 0 -18 -19 -30 -42 -12 -24 -26 -50 -32 -58 -16 -24 -125 -214 -133
-230 -4 -8 -18 -33 -32 -55 -14 -22 -31 -51 -38 -65 -6 -14 -14 -27 -18 -30
-4 -3 -19 -27 -33 -55 -15 -27 -35 -63 -45 -80 -102 -169 -441 -753 -462 -795
-25 -51 -38 -97 -45 -160 -6 -45 -5 -164 1 -190 3 -14 8 -36 11 -50 2 -14 20
-57 41 -97 46 -93 129 -176 230 -232 43 -24 101 -57 129 -73 93 -52 233 -74
339 -54 42 8 139 39 145 46 3 3 25 18 50 32 25 15 66 47 92 72 47 47 128 161
128 183 0 6 3 13 8 15 6 2 49 75 132 223 29 53 90 159 100 175 10 15 47 81 92
161 14 24 87 152 163 284 76 132 149 260 163 285 14 25 36 62 49 82 12 21 23
40 23 42 0 4 81 147 100 176 6 8 13 22 17 30 4 8 33 59 65 113 32 54 58 103
58 108 0 5 5 9 10 9 6 0 10 5 10 11 0 10 60 120 98 179 9 14 17 28 17 33 1 33
80 -76 131 -183 4 -8 26 -46 49 -85 22 -38 44 -77 48 -85 4 -8 18 -33 31 -55
14 -22 33 -56 44 -75 11 -19 30 -53 42 -75 13 -22 34 -60 48 -85 13 -25 31
-53 40 -62 8 -10 11 -18 7 -18 -4 0 -1 -8 7 -17 8 -10 30 -45 48 -78 32 -59
49 -88 90 -160 11 -19 29 -51 40 -70 50 -87 59 -103 89 -153 17 -29 31 -54 31
-56 0 -2 18 -34 40 -70 22 -36 40 -68 40 -71 0 -4 66 -118 90 -155 6 -8 13
-21 17 -29 3 -8 35 -63 70 -123 35 -60 63 -113 63 -119 0 -5 3 -9 8 -9 4 0 15
-17 24 -37 18 -38 49 -94 58 -103 3 -3 11 -17 19 -32 21 -40 161 -181 161
-161 0 3 8 -1 18 -9 44 -40 187 -80 281 -79 135 1 217 25 337 98 133 81 153
97 223 178 31 37 90 162 94 200 2 17 6 36 10 41 9 16 0 194 -12 239 -7 22 -14
48 -16 58 -2 10 -21 49 -42 85 -21 37 -40 72 -42 77 -2 6 -12 21 -21 35 -16
23 -39 62 -77 130 -8 14 -23 39 -33 55 -11 17 -27 46 -37 65 -9 19 -19 37 -22
40 -6 5 -15 21 -49 80 -8 14 -25 43 -38 65 -13 22 -33 58 -45 80 -12 22 -24
42 -28 45 -6 5 -48 80 -66 117 -5 13 -13 23 -17 23 -5 0 -8 5 -8 10 0 6 -20
43 -44 83 -24 39 -92 155 -151 257 -59 102 -119 203 -132 225 -13 22 -26 48
-30 58 -3 9 -9 17 -14 17 -5 0 -9 4 -9 10 0 5 -14 33 -31 62 -82 138 -159 271
-159 276 0 3 -6 13 -14 21 -8 9 -26 40 -41 69 -15 29 -31 55 -36 58 -5 3 -7 9
-4 14 3 4 231 6 507 4 277 -3 519 -4 538 -3 40 2 61 2 150 0 36 0 72 -1 80 -1
8 0 260 0 560 -1 300 -1 556 1 570 3 181 36 313 135 393 294 28 55 59 163 51
176 -3 4 -2 8 3 8 7 0 7 209 -1 275 -7 63 -19 116 -27 121 -5 3 -7 10 -4 15 4
5 2 9 -3 9 -6 0 -13 11 -16 25 -8 30 -60 108 -102 151 -29 29 -148 112 -166
115 -13 2 -22 5 -38 12 -8 4 -44 13 -80 21 -67 13 -135 13 -1788 2 -342 -2
-624 0 -627 4 -3 4 2 13 10 20 8 7 15 16 15 20 0 12 83 154 92 158 4 2 8 8 8
13 0 7 98 179 191 334 10 17 24 41 32 55 7 14 69 120 137 235 67 116 134 230
148 255 14 25 33 56 42 70 9 14 30 50 46 80 16 30 35 61 41 68 7 7 13 20 13
28 0 8 4 14 9 14 5 0 11 8 15 18 3 9 14 31 24 48 10 17 37 64 61 105 24 41 52
86 62 101 11 15 19 29 19 32 0 3 34 62 75 131 41 70 75 131 75 135 0 5 3 10 8
12 9 4 75 128 68 128 -3 0 2 17 11 38 22 51 27 216 9 276 -8 25 -12 46 -10 46
15 0 -87 169 -131 217 -51 57 -205 160 -306 207 -139 65 -338 48 -484 -39 -61
-37 -162 -136 -186 -184 -8 -14 -16 -28 -20 -31 -3 -3 -13 -21 -23 -40 -9 -19
-23 -44 -29 -55 -7 -11 -50 -85 -95 -165 -46 -80 -88 -152 -93 -160 -49 -80
-349 -613 -349 -620 0 -6 -4 -10 -10 -10 -5 0 -12 -11 -16 -25 -3 -14 -10 -25
-15 -25 -5 0 -9 -4 -9 -9 0 -8 -71 -139 -109 -201 -5 -8 -67 -116 -138 -239
-70 -123 -143 -249 -161 -280 -18 -31 -42 -75 -53 -98 -11 -23 -26 -46 -32
-52 -11 -8 -117 167 -275 454 -19 33 -49 85 -68 116 -19 31 -34 62 -34 68 0 6
-4 11 -10 11 -5 0 -10 7 -10 15 0 8 -5 15 -12 15 -6 0 -8 3 -5 7 4 3 3 11 -2
17 -5 6 -26 40 -46 76 -21 36 -46 80 -56 98 -11 17 -28 48 -39 67 -11 19 -30
52 -42 73 -11 20 -31 55 -42 77 -12 22 -23 42 -26 45 -3 3 -11 16 -19 30 -8
14 -27 48 -43 75 -16 28 -34 61 -41 75 -6 14 -14 27 -17 30 -10 9 -140 242
-140 251 0 5 -4 9 -9 9 -5 0 -11 8 -14 18 -3 9 -20 40 -36 67 -17 28 -34 57
-38 65 -4 8 -19 35 -33 61 -33 56 -76 132 -103 182 -19 33 -147 167 -161 167
-3 0 -27 14 -53 30 -92 59 -222 85 -343 69z"/>
</g>
</svg>
