<svg width="52" height="61" viewBox="0 0 52 61" fill="none" xmlns="http://www.w3.org/2000/svg">
  <path d="M26.8197 44.36L1 59V-2H51V59L26.8197 44.36Z" stroke="white" stroke-width="2"/>
  <path d="M16.1309 30.6484H14.0859V27.0859H11.0566V30.6484H9V22.1172H11.0566V25.5039H14.0859V22.1172H16.1309V30.6484Z" fill="#1F2222"/>
  <path d="M24.6621 26.5586C24.6621 27.3906 24.5078 28.127 24.1992 28.7676C23.8906 29.4082 23.4512 29.9023 22.8809 30.25C22.3145 30.5938 21.668 30.7656 20.9414 30.7656C20.2148 30.7656 19.5703 30.5996 19.0078 30.2676C18.4453 29.9316 18.0059 29.4531 17.6895 28.832C17.377 28.2109 17.2129 27.498 17.1973 26.6934V26.2129C17.1973 25.377 17.3496 24.6406 17.6543 24.0039C17.9629 23.3633 18.4023 22.8691 18.9727 22.5215C19.5469 22.1738 20.1992 22 20.9297 22C21.6523 22 22.2969 22.1719 22.8633 22.5156C23.4297 22.8594 23.8691 23.3496 24.1816 23.9863C24.498 24.6191 24.6582 25.3457 24.6621 26.166V26.5586ZM22.5703 26.2012C22.5703 25.3535 22.4277 24.7109 22.1426 24.2734C21.8613 23.832 21.457 23.6113 20.9297 23.6113C19.8984 23.6113 19.3535 24.3848 19.2949 25.9316L19.2891 26.5586C19.2891 27.3945 19.4277 28.0371 19.7051 28.4863C19.9824 28.9355 20.3945 29.1602 20.9414 29.1602C21.4609 29.1602 21.8613 28.9395 22.1426 28.498C22.4238 28.0566 22.5664 27.4219 22.5703 26.5938V26.2012Z" fill="#1F2222"/>
  <path d="M28.4238 22.1172L30.3281 28.0527L32.2266 22.1172H34.9336V30.6484H32.8711V28.6562L33.0703 24.5781L31.0078 30.6484H29.6484L27.5801 24.5723L27.7793 28.6562V30.6484H25.7227V22.1172H28.4238Z" fill="#1F2222"/>
  <path d="M41.5371 27.0332H38.3027V29.0664H42.123V30.6484H36.2461V22.1172H42.1348V23.7051H38.3027V25.5039H41.5371V27.0332Z" fill="#1F2222"/>
</svg>
