<svg width="35" height="35" viewBox="0 0 35 35" fill="none" xmlns="http://www.w3.org/2000/svg">
<path d="M17.5753 33.131C26.1155 33.131 33.0387 26.2078 33.0387 17.6675C33.0387 9.12732 26.1155 2.2041 17.5753 2.2041C9.03503 2.2041 2.11182 9.12732 2.11182 17.6675C2.11182 26.2078 9.03503 33.131 17.5753 33.131Z" fill="white"/>
<path d="M17.4688 0C22.3841 0 26.5305 1.68711 29.9059 5.06242C33.3009 8.45852 35 12.6044 35 17.5C35 22.417 33.3326 26.5103 29.9988 29.7806C26.4573 33.2604 22.2808 35 17.4688 35C12.7389 35 8.63516 33.2806 5.15648 29.843C1.71938 26.4053 0 22.2917 0 17.5C0 12.7088 1.71938 8.56297 5.15648 5.06297C8.5318 1.68711 12.635 0 17.4688 0ZM17.5312 3.15656C13.5521 3.15656 10.1877 4.55273 7.4375 7.34398C4.58281 10.261 3.15602 13.6467 3.15602 17.5005C3.15602 21.3757 4.57242 24.7302 7.40523 27.562C10.2386 30.3959 13.6134 31.8117 17.5301 31.8117C21.4255 31.8117 24.8221 30.386 27.7178 27.5308C30.468 24.885 31.8429 21.5414 31.8429 17.4995C31.8429 13.5204 30.4467 10.1358 27.656 7.34344C24.8648 4.55219 21.4895 3.15656 17.5312 3.15656ZM22.219 13.1562V20.312H20.2196V28.8116H14.7815V20.3126H12.7821V13.1562C12.7821 12.8434 12.8915 12.5781 13.1097 12.3594C13.329 12.1412 13.5948 12.0312 13.9065 12.0312H21.0946C21.3861 12.0312 21.647 12.1406 21.8755 12.3594C22.1036 12.5781 22.219 12.8439 22.219 13.1562ZM15.062 8.65648C15.062 7.01148 15.8741 6.18789 17.5 6.18789C19.1259 6.18789 19.9374 7.01039 19.9374 8.65648C19.9374 10.2812 19.1248 11.0939 17.5 11.0939C15.8752 11.0939 15.062 10.2812 15.062 8.65648Z" fill="#353535"/>
</svg>
