<svg width="35" height="35" viewBox="0 0 35 35" fill="none" xmlns="http://www.w3.org/2000/svg">
<path d="M17.6562 33.2708C26.3657 33.2708 33.4261 26.2104 33.4261 17.5009C33.4261 8.7914 26.3657 1.73096 17.6562 1.73096C8.94667 1.73096 1.88623 8.7914 1.88623 17.5009C1.88623 26.2104 8.94667 33.2708 17.6562 33.2708Z" fill="white"/>
<path d="M17.468 0C22.3632 0 26.531 1.70901 29.9681 5.12539C31.6131 6.77096 32.8639 8.6517 33.7181 10.7659C34.5718 12.8807 35 15.1252 35 17.5003C35 19.8962 34.5773 22.1411 33.7345 24.234C32.8907 26.3275 31.6454 28.1771 30.0004 29.7811C28.2925 31.4682 26.3549 32.7605 24.1876 33.6563C22.0214 34.5521 19.7813 35 17.4691 35C15.1569 35 12.9431 34.5581 10.8283 33.6716C8.71404 32.7868 6.818 31.5054 5.14071 29.8287C3.46341 28.1519 2.18753 26.2608 1.31252 24.1564C0.437507 22.052 0 19.8338 0 17.5003C0 15.1875 0.442429 12.9639 1.32783 10.8283C2.21324 8.69271 3.50005 6.78136 5.18719 5.09367C8.52044 1.69862 12.6139 0 17.468 0ZM17.5314 3.15661C13.5315 3.15661 10.1666 4.55281 7.43707 7.3441C6.06166 8.74029 5.00453 10.3077 4.26514 12.0473C3.52466 13.7869 3.15552 15.6048 3.15552 17.5008C3.15552 19.3761 3.52466 21.1835 4.26514 22.9221C5.00508 24.6628 6.06166 26.2149 7.43707 27.5793C8.81193 28.9444 10.3634 29.9851 12.0938 30.7048C13.8225 31.4234 15.6354 31.7827 17.5314 31.7827C19.4062 31.7827 21.2229 31.419 22.9855 30.6895C24.7459 29.9594 26.333 28.9083 27.7505 27.5334C30.4795 24.8668 31.8434 21.5231 31.8434 17.5014C31.8434 15.5638 31.489 13.7306 30.7808 12.0014C30.0737 10.2721 29.0417 8.731 27.6887 7.37582C24.8745 4.5632 21.4898 3.15661 17.5314 3.15661ZM17.3121 14.5947L14.9677 15.8137C14.7172 15.2936 14.4104 14.9283 14.0462 14.7199C13.6814 14.5121 13.3429 14.4076 13.03 14.4076C11.4681 14.4076 10.6861 15.4385 10.6861 17.5014C10.6861 18.4387 10.8841 19.188 11.2795 19.7507C11.6754 20.3134 12.2589 20.5951 13.03 20.5951C14.0511 20.5951 14.7697 20.0947 15.187 19.095L17.3428 20.1888C16.8845 21.0435 16.249 21.7151 15.4363 22.2046C14.6248 22.6946 13.7284 22.939 12.7489 22.939C11.1865 22.939 9.92539 22.4605 8.96725 21.5013C8.00911 20.5431 7.53004 19.2098 7.53004 17.5019C7.53004 15.835 8.01458 14.5126 8.98311 13.5332C9.95164 12.5543 11.1756 12.0642 12.6554 12.0642C14.8227 12.0632 16.3742 12.907 17.3121 14.5947ZM27.406 14.5947L25.0932 15.8137C24.8433 15.2936 24.5354 14.9283 24.1712 14.7199C23.8058 14.5121 23.4564 14.4076 23.1244 14.4076C21.562 14.4076 20.7799 15.4385 20.7799 17.5014C20.7799 18.4387 20.9785 19.188 21.3738 19.7507C21.7692 20.3134 22.3522 20.5951 23.1244 20.5951C24.1444 20.5951 24.8635 20.0947 25.2797 19.095L27.4672 20.1888C26.9887 21.0435 26.3423 21.7151 25.5307 22.2046C24.718 22.6946 23.8326 22.939 22.8745 22.939C21.2907 22.939 20.0258 22.4605 19.0786 21.5013C18.1292 20.5431 17.6556 19.2098 17.6556 17.5019C17.6556 15.835 18.1396 14.5126 19.1092 13.5332C20.0772 12.5543 21.3011 12.0642 22.7804 12.0642C24.9472 12.0632 26.4899 12.907 27.406 14.5947Z" fill="#353535"/>
</svg>
