<svg xmlns="http://www.w3.org/2000/svg" viewBox="0 0 514.693 95.4" height="95.4" width="514.693" class="logo">
  <path d="M41.317 38.998c-12.046-3.354-18.882-5.958-18.882-13.293 0-5.464 4.72-9.186 13.294-9.186 7.777 0 15.463 3.942 20.518 10.11.036.052.073.098.128.154a3.592 3.592 0 002.748 1.265c.732 0 1.41-.218 1.98-.597l.343-.254a.439.439 0 00.065-.053l.315-.244 7.207-5.473.969-.74a3.715 3.715 0 001.012-2.542c0-.76-.225-1.465-.623-2.052 0-.008-.01-.018-.01-.018-.108-.137-.216-.282-.326-.417-6.709-8.49-17.407-15.662-34.2-15.662-19.75 0-33.17 10.31-33.17 27.455 0 19.251 17.146 23.475 33.541 28.069 12.055 3.355 18.638 6.337 18.638 13.293 0 7.08-6.71 10.562-16.025 10.562-9.287 0-17.514-4.321-22.833-12.208a.168.168 0 00-.037-.053c-.036-.055-.071-.11-.109-.163-.025-.047-.063-.093-.09-.137a3.923 3.923 0 00-3.192-1.608c-.669 0-1.292.162-1.844.441l-.01.01-.38.226-7.893 4.686-.335.196-.596.353A3.702 3.702 0 000 74.113c0 .596.136 1.156.389 1.654l.353.568C7.902 87.62 19.804 95.4 37.845 95.4c25.591 0 36.769-13.168 36.769-27.952 0-19.01-17.145-24.1-33.297-28.45M122.658 45.34H108.87V21.96h.01a3.706 3.706 0 013.706-3.707h10.073c12.67 0 17.263 4.847 17.263 13.42 0 8.819-4.72 13.665-17.263 13.665zm-.496-43.61H92.446a3.707 3.707 0 00-3.707 3.71v84.515a3.712 3.712 0 003.707 3.707h12.725a3.712 3.712 0 003.698-3.516V60.991h13.04c18.384 0 37.762-5.092 37.762-29.816 0-24.226-17.887-29.444-37.509-29.444M185.236 58.504l10.807-31.307h.242l10.563 31.307zm22.048-54.502a2.728 2.728 0 00-.135-.37 3.707 3.707 0 00-3.421-2.271h-13.996a3.711 3.711 0 00-3.545 2.603l-31.643 89.698h15.987a3.714 3.714 0 003.546-2.603l6.187-17.899h31.305l5.831 17.502v.009l.301.876a3.687 3.687 0 003.346 2.115h17.852l-31.615-89.66M283.217 43.349h-13.792V21.96a3.713 3.713 0 013.708-3.707h10.084c11.672 0 17.264 3.353 17.264 12.425 0 9.314-5.592 12.67-17.264 12.67zm17.888 13.047c12.296-3.725 19.135-11.68 19.135-26.215 0-20.373-13.548-28.45-36.155-28.45H253.26a3.715 3.715 0 00-3.708 3.708v84.516a3.714 3.714 0 003.708 3.707h12.46a3.706 3.706 0 003.706-3.707V59.003h11.676l17.942 32.49.27.505.02.02a3.661 3.661 0 003.072 1.644h19.2l-20.5-37.266M407.132 63.144c-.043-.01-.099-.019-.144-.037l-11.413-2.534c-.01-.007-.018-.007-.024-.007l-.58-.127a3.692 3.692 0 00-3.933 2.297l-.011.007a9.604 9.604 0 01-.171.544v.009c-3.31 10.283-8.619 15.836-18.356 15.836-13.91 0-21.615-12.18-21.615-31.56 0-19.009 7.451-30.808 21.368-30.808 9.57 0 14.172 5.65 17.176 14.285a3.705 3.705 0 003.543 2.632c.225 0 .452-.018.67-.073l.073-.018c.125-.024.253-.062.369-.099l.172-.056 11.583-3.381.48-.134a3.75 3.75 0 002.478-3.538c0-.387-.053-.757-.161-1.11-.037-.12-.076-.237-.11-.354-.007-.027-.02-.045-.029-.063-4.621-14.442-14.856-24.859-36.126-24.859-23.22 0-41.732 15.653-41.732 47.576 0 32.427 17.761 47.828 41.732 47.828 21.289 0 32.248-10.96 37.33-27.156.01-.019.019-.037.028-.064.052-.189.116-.39.17-.587.01-.02.01-.037.018-.056a3.748 3.748 0 00-2.785-4.393" fill="#191817"/>
  <path d="M437.977 87.255c-.39 0-.485-.39-.29-1.163l21.509-36.915-42.728.291c-.581 0-.872-.291-.872-.872V46.85c.19-.58.481-.87.872-.87l42.728.29-21.51-36.915c-.39-.39-.29-.777.291-1.162l1.454-.873c.19-.39.581-.29 1.162.29l21.218 37.206 21.218-37.206c.388-.58.775-.68 1.166-.29l1.452.873c.385.385.482.772.29 1.162L464.428 46.27l42.728-.29c.583 0 .872.29.872.871v1.745c0 .58-.29.872-.872.872l-42.728-.291 21.51 36.915c.191.58.094.967-.291 1.163l-1.452.871c-.583.191-.974.096-1.166-.29L461.811 50.63l-21.218 37.205c-.39.583-.776.677-1.162.291l-1.454-.871" fill="#db2333"/>
  <path d="M439.895 95.025a7.215 7.215 0 01-4.28-1.414l-.423-.253a6.953 6.953 0 01-2.764-2.132c-1.004-1.29-2.028-3.511-1.204-6.769l.23-.91 16.097-27.624-31.038.212c-4.342 0-7.584-3.24-7.584-7.54v-2.81l.334-1.015c1.089-3.315 3.917-5.456 7.205-5.456l31.083.21-15.391-26.41a7.223 7.223 0 01-1.339-4.936c.131-1.296.755-3.74 3.472-5.541l.991-.602a6.954 6.954 0 014.47-1.614c2.04 0 3.907.832 5.551 2.474l.635.634 15.87 27.831 15.67-27.444c1.481-2.221 3.757-3.495 6.248-3.495 1.544 0 3.03.497 4.285 1.417l1.768 1.062.58.58c2.398 2.397 3.011 5.855 1.563 8.81l-.227.423-15.621 26.812 31.035-.211c4.342 0 7.584 3.24 7.584 7.537v1.745c0 4.298-3.242 7.539-7.539 7.539l-31.08-.212 15.973 27.418.22.664c1.188 3.603-.17 7.267-3.305 9.035l-1.981 1.187-.707.232c-3.627 1.192-7.39-.289-9.085-3.406l-15.38-26.966-15.682 27.464c-1.482 2.208-3.754 3.474-6.234 3.474" fill="#db2333"/>
</svg>
