<svg width="80" height="45" viewBox="0 0 80 45" fill="none" xmlns="http://www.w3.org/2000/svg">
<mask id="path-1-inside-1" fill="white">
<path fill-rule="evenodd" clip-rule="evenodd" d="M0 3.14533L39.0273 31.5966L40.5171 32.6827L41.9948 31.5803L80 3.22983V45H0V3.14533ZM4.17315 0H75.9675L40.4829 26.4702L4.17315 0Z"/>
</mask>
<path fill-rule="evenodd" clip-rule="evenodd" d="M0 3.14533L39.0273 31.5966L40.5171 32.6827L41.9948 31.5803L80 3.22983V45H0V3.14533ZM4.17315 0H75.9675L40.4829 26.4702L4.17315 0Z" fill="#D92C35"/>
<path d="M39.0273 31.5966L36.0818 35.6369L36.0818 35.6369L39.0273 31.5966ZM0 3.14533L2.94545 -0.895004L-5 -6.68731L-5 3.14533H0ZM40.5171 32.6827L37.5716 36.723L40.5512 38.8951L43.5067 36.6904L40.5171 32.6827ZM41.9948 31.5803L44.9845 35.5881L44.9845 35.5881L41.9948 31.5803ZM80 3.22983H85V-6.7379L77.0104 -0.777922L80 3.22983ZM80 45V50H85V45H80ZM0 45H-5V50H0V45ZM4.17315 0V-5H-11.1731L1.2277 4.04034L4.17315 0ZM75.9675 0L78.9572 4.00775L91.0325 -5L75.9675 -5V0ZM40.4829 26.4702L37.5375 30.5105L40.5171 32.6827L43.4726 30.478L40.4829 26.4702ZM41.9727 27.5563L2.94545 -0.895004L-2.94545 7.18567L36.0818 35.6369L41.9727 27.5563ZM43.4625 28.6423L41.9727 27.5563L36.0818 35.6369L37.5716 36.723L43.4625 28.6423ZM39.0052 27.5726L37.5274 28.6749L43.5067 36.6904L44.9845 35.5881L39.0052 27.5726ZM77.0104 -0.777922L39.0052 27.5726L44.9845 35.5881L82.9896 7.23758L77.0104 -0.777922ZM75 3.22983V45H85V3.22983H75ZM80 40H0V50H80V40ZM5 45V3.14533H-5V45H5ZM4.17315 5H75.9675V-5H4.17315V5ZM43.4726 30.478L78.9572 4.00775L72.9779 -4.00775L37.4933 22.4625L43.4726 30.478ZM1.2277 4.04034L37.5375 30.5105L43.4284 22.4299L7.11859 -4.04034L1.2277 4.04034Z" fill="#D92C35" mask="url(#path-1-inside-1)"/>
</svg>
